<?xml version="1.0" encoding="utf-8"?>
<!DOCTYPE svg PUBLIC "-//W3C//DTD SVG 1.1//EN" "http://www.w3.org/Graphics/SVG/1.1/DTD/svg11.dtd">
<svg version="1.1" id="Layer_1" xmlns="http://www.w3.org/2000/svg" xmlns:xlink="http://www.w3.org/1999/xlink" x="0px" y="0px"
	 width="612px" height="612px" viewBox="0 90 612 612" enable-background="new 0 90 612 612" xml:space="preserve">
<path fill="#E30613" d="M612,640.8c0,33.223-27.978,61.2-61.2,61.2H61.2C27.977,702,0,674.022,0,640.8V151.2
	C0,117.977,27.977,90,61.2,90h489.6c33.223,0,61.2,27.977,61.2,61.2V640.8z M306,621.565c113.657,0,166.114-90.926,166.114-181.852
	c0-127.646-87.429-271.028-166.114-271.028c-76.937,0-166.114,145.132-166.114,272.777C139.886,530.64,190.594,621.565,306,621.565"
	/>
</svg>
