<?xml version="1.0" encoding="utf-8"?>
<!-- Generator: Adobe Illustrator 15.0.0, SVG Export Plug-In . SVG Version: 6.00 Build 0)  -->
<!DOCTYPE svg PUBLIC "-//W3C//DTD SVG 1.1//EN" "http://www.w3.org/Graphics/SVG/1.1/DTD/svg11.dtd">
<svg version="1.1" id="Слой_1" xmlns="http://www.w3.org/2000/svg" xmlns:xlink="http://www.w3.org/1999/xlink" x="0px" y="0px"
	 width="1024px" height="1024px" viewBox="0 0 1024 1024" enable-background="new 0 0 1024 1024" xml:space="preserve">
<path fill="#FFFFFF" d="M384,928c0,53.019-42.981,96-96,96c-53.019,0-96-42.981-96-96s42.981-96,96-96
	C341.019,832,384,874.981,384,928z"/>
<path fill="#FFFFFF" d="M1024,928c0,53.019-42.981,96-96,96s-96-42.981-96-96s42.981-96,96-96S1024,874.981,1024,928z"/>
<path fill="#FFFFFF" d="M1024,512V128H256c0-35.346-28.654-64-64-64H0v64h128l48.074,412.054C146.78,563.512,128,599.554,128,640
	c0,70.696,57.308,128,128,128h768v-64H256c-35.346,0-64-28.654-64-64c0-0.218,0.014-0.436,0.016-0.656L1024,512L1024,512z"/>
</svg>
