<?xml version="1.0" encoding="utf-8"?>
<!-- Generator: Adobe Illustrator 15.0.0, SVG Export Plug-In . SVG Version: 6.00 Build 0)  -->
<!DOCTYPE svg PUBLIC "-//W3C//DTD SVG 1.1//EN" "http://www.w3.org/Graphics/SVG/1.1/DTD/svg11.dtd">
<svg version="1.1" id="Слой_1" xmlns="http://www.w3.org/2000/svg" xmlns:xlink="http://www.w3.org/1999/xlink" x="0px" y="0px"
	 width="32px" height="32px" viewBox="0 0 32 32">
<path fill="#bf2622" d="M20.118,23.085c-2.082,1.484-4.63,2.355-7.382,2.355C5.702,25.44,0,19.745,0,12.72C0,5.694,5.702,0,12.736,0
	c7.035,0,12.738,5.694,12.738,12.72c0,2.749-0.874,5.293-2.357,7.374l8.368,8.356c0.823,0.826,0.818,2.143,0,2.959l-0.035,0.034
	c-0.815,0.814-2.144,0.819-2.961,0.003L20.118,23.085L20.118,23.085z M12.736,22.448c5.38,0,9.74-4.354,9.74-9.729
	c0-5.372-4.359-9.727-9.74-9.727c-5.379,0-9.74,4.355-9.74,9.727C2.996,18.094,7.357,22.448,12.736,22.448L12.736,22.448z"/>
</svg>
